# xmcd
#
# Track frame offsets:
#	150
#	19256
#	42778
#	58321
#	75814
#	102265
#	117750
#	134999
#	151885
#	172531
#	190092
#	205686
#	219296
#	235220
#	253906
#	267577
#	289793
#	306950
#
# Disc length: 4367 seconds
#
# Revision: 4
# Processed by: cddbd v1.5.1PL2 Copyright (c) Steve Scherf et al.
# Submitted via: EasyCDDAExtractor 9.1.0.1
#
DISCID=f9110d12
DTITLE=Various Artist - The Very Best of Andrew Lloyd Webber
DYEAR=1900
DGENRE=Easy Listening
TTITLE0=Elaine Paige - Memory
TTITLE1=Michael Crawford - The Music of the Night
TTITLE2=Marti Webb - Take That Look Off Your Face
TTITLE3=Jason Donovan - Any Dream Will Do
TTITLE4=sarah Brightman - Don't Cry For Me Argentina
TTITLE5=Michael Ball - Love Changes Everything
TTITLE6=Sarah Brightman - I Don't Know How To Love Him
TTITLE7=Dina Carroll - The Perfect Year
TTITLE8=Sarah Brightman and Steve Harley - The Phantom Of The Opera
TTITLE9=David Essex - Oh What A Circus
TTITLE10=Marti Webb - Tell Me On A Sunday
TTITLE11=Phillip Schofield - Close Every DOor
TTITLE12=Barbara Streisand - With One Look
TTITLE13=Cliff Richard and Sarah Brightman - All I Ask Of You
TTITLE14=Michael Ball - Sunset Boulevard
TTITLE15=Glenn Close - As If We Never Said Goodbye
TTITLE16=Reva Rice and Greg Ellis - Next Time You Fall In Love
TTITLE17=José Carreras and Sara Brightman - Amigos Para Siempre (Friends For Lif
TTITLE17=e)
EXTD=Barbara Streisand, Michael Ball, Dina Carrol, Michael Crawford,\nSara Bri
EXTD=ghtman, Glenn Close
EXTT0=
EXTT1=
EXTT2=
EXTT3=
EXTT4=
EXTT5=
EXTT6=
EXTT7=
EXTT8=
EXTT9=
EXTT10=
EXTT11=
EXTT12=
EXTT13=
EXTT14=
EXTT15=
EXTT16=
EXTT17=
PLAYORDER=
